<svg xmlns="http://www.w3.org/2000/svg" width="46" height="46" viewBox="0 0 46 46">
  <g id="그룹_459" data-name="그룹 459" transform="translate(-2920 -1394)">
    <path id="패스_182" data-name="패스 182" d="M23,0A23,23,0,1,1,0,23,23,23,0,0,1,23,0Z" transform="translate(2920 1394)" fill="#707071"/>
    <path id="schedule_23dp_1F1F1F_FILL0_wght300_GRAD0_opsz24" d="M114.989-843.793l1.218-1.218-4.364-4.364V-854.8H110.11v6.128Zm-4.011,5.746a10.693,10.693,0,0,1-4.281-.864,11.086,11.086,0,0,1-3.486-2.346,11.088,11.088,0,0,1-2.347-3.484,10.684,10.684,0,0,1-.865-4.28,10.694,10.694,0,0,1,.864-4.281,11.088,11.088,0,0,1,2.346-3.486,11.087,11.087,0,0,1,3.484-2.347,10.683,10.683,0,0,1,4.28-.864,10.694,10.694,0,0,1,4.281.864,11.087,11.087,0,0,1,3.486,2.346,11.084,11.084,0,0,1,2.347,3.484,10.683,10.683,0,0,1,.865,4.28,10.692,10.692,0,0,1-.864,4.281,11.086,11.086,0,0,1-2.346,3.486,11.084,11.084,0,0,1-3.484,2.347A10.684,10.684,0,0,1,110.978-838.048ZM110.976-849.024Zm0,9.243a8.91,8.91,0,0,0,6.542-2.7,8.91,8.91,0,0,0,2.7-6.542,8.91,8.91,0,0,0-2.7-6.542,8.91,8.91,0,0,0-6.542-2.7,8.91,8.91,0,0,0-6.542,2.7,8.91,8.91,0,0,0-2.7,6.542,8.91,8.91,0,0,0,2.7,6.542A8.91,8.91,0,0,0,110.976-839.781Z" transform="translate(2832.023 2265.939)" fill="#fff"/>
  </g>
</svg>
